G04 Layer: TopSilkscreenLayer*
G04 EasyEDA Pro v2.2.47.7, 2026-04-18 19:24:00*
G04 Gerber Generator version 0.3*
G04 Scale: 100 percent, Rotated: No, Reflected: No*
G04 Dimensions in millimeters*
G04 Leading zeros omitted, absolute positions, 4 integers and 5 decimals*
G04 Generated by one-click*
G04 Object Configs: Pad,Via,Track,Text,Image,Dimension,BoardOutline,BoardCutout,CopperFilled,SolidRegion,FPCStiffener,Line,PlaneZone,ComponentProperty,ComponentSilkscreen,TearDrop*
G04 Layer Configs: 1,2,3,4,5,6,7,8,9,10,11,13,14,56*
G04 Copper Areas: 0*
%FSLAX45Y45*%
%MOMM*%
%ADD10C,0.1524*%
%ADD11C,0.254*%
%ADD12C,0.2742*%
G75*


G04 Text Start*
G54D10*
G01X4266503Y-2222219D02*
G01X4263455Y-2215869D01*
G01X4257105Y-2209773D01*
G01X4251009Y-2206725D01*
G01X4238563Y-2206725D01*
G01X4232467Y-2209773D01*
G01X4226117Y-2215869D01*
G01X4223069Y-2222219D01*
G01X4220021Y-2231363D01*
G01X4220021Y-2246857D01*
G01X4223069Y-2256255D01*
G01X4226117Y-2262351D01*
G01X4232467Y-2268701D01*
G01X4238563Y-2271749D01*
G01X4251009Y-2271749D01*
G01X4257105Y-2268701D01*
G01X4263455Y-2262351D01*
G01X4266503Y-2256255D01*
G01X4296729Y-2219171D02*
G01X4302825Y-2215869D01*
G01X4311969Y-2206725D01*
G01X4311969Y-2271749D01*
G01X4953815Y-2210067D02*
G01X4953815Y-2275091D01*
G01X4953815Y-2275091D02*
G01X4990899Y-2275091D01*
G01X5021125Y-2210067D02*
G01X5021125Y-2275091D01*
G01X5021125Y-2210067D02*
G01X5061257Y-2210067D01*
G01X5021125Y-2241055D02*
G01X5045763Y-2241055D01*
G01X5021125Y-2275091D02*
G01X5061257Y-2275091D01*
G01X5091483Y-2210067D02*
G01X5091483Y-2275091D01*
G01X5091483Y-2210067D02*
G01X5113073Y-2210067D01*
G01X5122217Y-2213115D01*
G01X5128567Y-2219211D01*
G01X5131615Y-2225561D01*
G01X5134663Y-2234705D01*
G01X5134663Y-2250199D01*
G01X5131615Y-2259597D01*
G01X5128567Y-2265693D01*
G01X5122217Y-2272043D01*
G01X5113073Y-2275091D01*
G01X5091483Y-2275091D01*
G01X5164889Y-2222513D02*
G01X5170985Y-2219211D01*
G01X5180129Y-2210067D01*
G01X5180129Y-2275091D01*
G01X5345509Y-3381014D02*
G01X5345509Y-3315990D01*
G01X5345509Y-3381014D02*
G01X5317569Y-3381014D01*
G01X5308425Y-3377966D01*
G01X5305377Y-3374918D01*
G01X5302075Y-3368568D01*
G01X5302075Y-3362472D01*
G01X5305377Y-3356376D01*
G01X5308425Y-3353328D01*
G01X5317569Y-3350026D01*
G01X5345509Y-3350026D01*
G01X5323919Y-3350026D02*
G01X5302075Y-3315990D01*
G01X5271849Y-3368568D02*
G01X5265753Y-3371870D01*
G01X5256609Y-3381014D01*
G01X5256609Y-3315990D01*
G01X4200218Y-3056956D02*
G01X4200218Y-3103438D01*
G01X4203266Y-3112582D01*
G01X4209616Y-3118932D01*
G01X4218760Y-3121980D01*
G01X4225110Y-3121980D01*
G01X4234254Y-3118932D01*
G01X4240350Y-3112582D01*
G01X4243652Y-3103438D01*
G01X4243652Y-3056956D01*
G01X4273878Y-3069402D02*
G01X4279974Y-3066100D01*
G01X4289118Y-3056956D01*
G01X4289118Y-3121980D01*
G01X3840134Y-1453420D02*
G01X3793652Y-1453420D01*
G01X3784508Y-1456468D01*
G01X3778158Y-1462818D01*
G01X3775110Y-1471962D01*
G01X3775110Y-1478312D01*
G01X3778158Y-1487456D01*
G01X3784508Y-1493552D01*
G01X3793652Y-1496854D01*
G01X3840134Y-1496854D01*
G01X3824640Y-1530128D02*
G01X3827688Y-1530128D01*
G01X3834038Y-1533176D01*
G01X3837086Y-1536224D01*
G01X3840134Y-1542320D01*
G01X3840134Y-1554766D01*
G01X3837086Y-1561116D01*
G01X3834038Y-1564164D01*
G01X3827688Y-1567212D01*
G01X3821592Y-1567212D01*
G01X3815496Y-1564164D01*
G01X3806098Y-1557814D01*
G01X3775110Y-1527080D01*
G01X3775110Y-1570260D01*
G04 Text End*

G04 PolygonModel Start*
G54D11*
G01X4336073Y-2468327D02*
G01X4256076Y-2468327D01*
G01X4392118Y-2468373D02*
G01X4472116Y-2468373D01*
G01X4336073Y-2326359D02*
G01X4256076Y-2326359D01*
G01X4392118Y-2326407D02*
G01X4472116Y-2326407D01*
G01X4225101Y-2437344D02*
G01X4225101Y-2357339D01*
G01X4503093Y-2357393D02*
G01X4503093Y-2437395D01*
G01X4472110Y-2326407D02*
G02X4503093Y-2357393I0J-30983D01*
G01X4503093Y-2437390D02*
G02X4472110Y-2468373I-30983J0D01*
G01X4256081Y-2468327D02*
G02X4225101Y-2437344I3J30983D01*
G01X4225101Y-2357347D02*
G02X4256081Y-2326359I30983J5D01*
G01X5218892Y-2330699D02*
G01X5366901Y-2329701D01*
G01X5232900Y-2519700D02*
G01X5366901Y-2519700D01*
G01X5366901Y-2329701D02*
G01X5366901Y-2519703D01*
G01X4993889Y-2520701D02*
G01X4993889Y-2520696D01*
G01X4993889Y-2520696D02*
G01X4958895Y-2485702D01*
G01X4993889Y-2330699D02*
G01X4993889Y-2330704D01*
G01X4993889Y-2330704D02*
G01X4958895Y-2365698D01*
G01X5118892Y-2330699D02*
G01X4993889Y-2330699D01*
G01X5118892Y-2520701D02*
G01X4993889Y-2520701D01*
G01X4958895Y-2365698D02*
G01X4958895Y-2485702D01*
G01X5198900Y-2375700D02*
G01X5198900Y-2475700D01*
G01X5198900Y-2426205D02*
G01X5148900Y-2426205D01*
G54D10*
G01X5164379Y-3134340D02*
G01X5068491Y-3134340D01*
G01X5068491Y-3134340D02*
G01X5068491Y-3266460D01*
G01X5068491Y-3266460D02*
G01X5164379Y-3266460D01*
G01X5249621Y-3134340D02*
G01X5345509Y-3134340D01*
G01X5345509Y-3134340D02*
G01X5345509Y-3266460D01*
G01X5345509Y-3266460D02*
G01X5249621Y-3266460D01*
G54D11*
G01X4391111Y-3176590D02*
G01X4405300Y-3176590D01*
G01X4205298Y-3244083D02*
G01X4205298Y-3176590D01*
G01X4205298Y-3176590D02*
G01X4219494Y-3176590D01*
G01X4219494Y-3376590D02*
G01X4205298Y-3376590D01*
G01X4205298Y-3376590D02*
G01X4205298Y-3309089D01*
G01X4405300Y-3376590D02*
G01X4391111Y-3376590D01*
G01X4405300Y-3309089D02*
G01X4405300Y-3376590D01*
G01X4405300Y-3176590D02*
G01X4405300Y-3244083D01*

G04 Circle Start*
G01X4248175Y-3403600D02*
G03X4260875Y-3403600I6350J0D01*
G03X4248175Y-3403600I-6350J0D01*
G04 Circle End*

M02*

